<svg width="800" height="510" viewBox="0 0 800 510" xmlns="http://www.w3.org/2000/svg">
  <defs>
    <linearGradient id="bgGrad" x1="0%" y1="0%" x2="100%" y2="100%">
      <stop offset="0%" style="stop-color:#1f2937;stop-opacity:1" />
      <stop offset="100%" style="stop-color:#111827;stop-opacity:1" />
    </linearGradient>
                  <clipPath id="clip-1765356398553-3">
      <rect x="0" y="0" width="700" height="200" rx="4"/>
    </clipPath>
    <clipPath id="clip-1765356398553-2">
      <rect x="0" y="0" width="220" height="180" rx="4"/>
    </clipPath>
    <clipPath id="clip-1765356398553-1">
      <rect x="0" y="0" width="220" height="180" rx="4"/>
    </clipPath>
    <clipPath id="clip-1765356398553-0">
      <rect x="0" y="0" width="220" height="180" rx="4"/>
    </clipPath>
  </defs>
  
  <rect width="800" height="510" fill="url(#bgGrad)"/>
  
  <text x="400" y="35" font-family="system-ui, sans-serif" font-size="18" font-weight="bold" fill="#facc15" text-anchor="middle">Attention Mechanisms</text>
  
  <!-- Self-Attention -->
  <g transform="translate(50, 80)">

    <rect x="0" y="0" width="220" height="180" fill="#1e293b" rx="4" stroke="#475569" stroke-width="1"/>
    <g clip-path="url(#clip-1765356398553-0)">
    <text x="110" y="25" font-family="system-ui, sans-serif" font-size="14" font-weight="bold" fill="#06b6d4" text-anchor="middle">Self-Attention</text>
    <text x="60" y="85" font-family="monospace" font-size="9" fill="#fff" text-anchor="middle">A</text>
    <text x="110" y="85" font-family="monospace" font-size="9" fill="#fff" text-anchor="middle">B</text>
    <text x="160" y="85" font-family="monospace" font-size="9" fill="#fff" text-anchor="middle">C</text>
    <text x="110" y="140" font-family="system-ui, sans-serif" font-size="11" fill="#cbd5e1" text-anchor="middle">All tokens attend</text>
    <text x="110" y="160" font-family="system-ui, sans-serif" font-size="11" fill="#cbd5e1" text-anchor="middle">to all tokens</text>
    </g>

    <circle cx="60" cy="80" r="20" fill="#06b6d4" opacity="0.3"/>

    <circle cx="110" cy="80" r="20" fill="#06b6d4" opacity="0.3"/>

    <circle cx="160" cy="80" r="20" fill="#06b6d4" opacity="0.3"/>

    <line x1="60" y1="100" x2="110" y2="100" stroke="#facc15" stroke-width="1"/>
    <line x1="60" y1="100" x2="160" y2="100" stroke="#facc15" stroke-width="1"/>
    <line x1="110" y1="100" x2="160" y2="100" stroke="#facc15" stroke-width="1"/>

  </g>
  
  <!-- Cross-Attention -->
  <g transform="translate(290, 80)">

    <rect x="0" y="0" width="220" height="180" fill="#1e293b" rx="4" stroke="#475569" stroke-width="1"/>
    <g clip-path="url(#clip-1765356398553-1)">
    <text x="110" y="25" font-family="system-ui, sans-serif" font-size="14" font-weight="bold" fill="#10b981" text-anchor="middle">Cross-Attention</text>
    <text x="60" y="85" font-family="monospace" font-size="9" fill="#fff" text-anchor="middle">Q</text>
    <text x="110" y="85" font-family="monospace" font-size="9" fill="#fff" text-anchor="middle">K</text>
    <text x="160" y="85" font-family="monospace" font-size="9" fill="#fff" text-anchor="middle">V</text>
    <text x="110" y="135" font-family="monospace" font-size="9" fill="#fff" text-anchor="middle">O</text>
    <text x="110" y="160" font-family="system-ui, sans-serif" font-size="11" fill="#cbd5e1" text-anchor="middle">Query attends to keys</text>
    </g>

    <circle cx="60" cy="80" r="20" fill="#06b6d4" opacity="0.3"/>

    <circle cx="110" cy="80" r="20" fill="#06b6d4" opacity="0.3"/>

    <circle cx="160" cy="80" r="20" fill="#06b6d4" opacity="0.3"/>

    <circle cx="110" cy="130" r="20" fill="#10b981" opacity="0.3"/>

    <line x1="60" y1="100" x2="110" y2="110" stroke="#facc15" stroke-width="1"/>
    <line x1="110" y1="100" x2="110" y2="110" stroke="#facc15" stroke-width="1"/>
    <line x1="160" y1="100" x2="110" y2="110" stroke="#facc15" stroke-width="1"/>

  </g>
  
  <!-- Multi-Head -->
  <g transform="translate(530, 80)">

    <rect x="0" y="0" width="220" height="180" fill="#1e293b" rx="4" stroke="#475569" stroke-width="1"/>
    <g clip-path="url(#clip-1765356398553-2)">
    <text x="110" y="25" font-family="system-ui, sans-serif" font-size="14" font-weight="bold" fill="#f59e0b" text-anchor="middle">Multi-Head</text>
    <text x="60" y="70" font-family="monospace" font-size="9" fill="#fff" text-anchor="middle">Head 1</text>
    <text x="160" y="70" font-family="monospace" font-size="9" fill="#fff" text-anchor="middle">Head 2</text>
    <text x="60" y="110" font-family="monospace" font-size="9" fill="#fff" text-anchor="middle">Head 3</text>
    <text x="160" y="110" font-family="monospace" font-size="9" fill="#fff" text-anchor="middle">Head 4</text>
    <text x="110" y="160" font-family="monospace" font-size="9" fill="#fff" text-anchor="middle">Concatenate</text>
    <text x="110" y="190" font-family="system-ui, sans-serif" font-size="11" fill="#cbd5e1" text-anchor="middle">Multiple attention patterns</text>
    </g>

    <rect x="20" y="50" width="80" height="30" fill="#f59e0b" opacity="0.3" rx="4"/>

    <rect x="120" y="50" width="80" height="30" fill="#f59e0b" opacity="0.3" rx="4"/>

    <rect x="20" y="90" width="80" height="30" fill="#f59e0b" opacity="0.3" rx="4"/>

    <rect x="120" y="90" width="80" height="30" fill="#f59e0b" opacity="0.3" rx="4"/>

    <rect x="60" y="140" width="100" height="30" fill="#10b981" opacity="0.3" rx="4"/>

  </g>
  
  <!-- Comparison -->
  <g transform="translate(50, 280)">

    <rect x="0" y="0" width="700" height="200" fill="#1e293b" rx="4" stroke="#475569" stroke-width="1"/>
    <g clip-path="url(#clip-1765356398553-3)">
    <text x="350" y="30" font-family="system-ui, sans-serif" font-size="16" font-weight="bold" fill="#facc15" text-anchor="middle">Attention Mechanism Benefits</text>
    <text x="100" y="70" font-family="system-ui, sans-serif" font-size="13" font-weight="bold" fill="#10b981">Context Awareness</text>
    <text x="120" y="95" font-family="system-ui, sans-serif" font-size="11" fill="#cbd5e1">Captures relationships</text>
    <text x="120" y="115" font-family="system-ui, sans-serif" font-size="11" fill="#cbd5e1">Long-range dependencies</text>
    <text x="400" y="70" font-family="system-ui, sans-serif" font-size="13" font-weight="bold" fill="#10b981">Parallelization</text>
    <text x="420" y="95" font-family="system-ui, sans-serif" font-size="11" fill="#cbd5e1">All positions computed</text>
    <text x="420" y="115" font-family="system-ui, sans-serif" font-size="11" fill="#cbd5e1">in parallel</text>
    <text x="100" y="150" font-family="system-ui, sans-serif" font-size="13" font-weight="bold" fill="#10b981">Interpretability</text>
    <text x="120" y="175" font-family="system-ui, sans-serif" font-size="11" fill="#cbd5e1">Attention weights show</text>
    <text x="120" y="195" font-family="system-ui, sans-serif" font-size="11" fill="#cbd5e1">what model focuses on</text>
    <text x="400" y="150" font-family="system-ui, sans-serif" font-size="13" font-weight="bold" fill="#10b981">Flexibility</text>
    <text x="420" y="175" font-family="system-ui, sans-serif" font-size="11" fill="#cbd5e1">Adapts to input length</text>
    <text x="420" y="195" font-family="system-ui, sans-serif" font-size="11" fill="#cbd5e1">Variable sequence handling</text>
    </g>

  </g>
  
</svg>