<svg width="800" height="510" viewBox="0 0 800 510" xmlns="http://www.w3.org/2000/svg">
  <defs>
    <linearGradient id="bgGrad" x1="0%" y1="0%" x2="100%" y2="100%">
      <stop offset="0%" style="stop-color:#1f2937;stop-opacity:1" />
      <stop offset="100%" style="stop-color:#111827;stop-opacity:1" />
    </linearGradient>
    <marker id="arrowhead" markerWidth="6" markerHeight="6" refX="5" refY="2" orient="auto">
      <polygon points="0 0, 6 2, 0 4" fill="#06b6d4"/>
    </marker>
                  <clipPath id="clip-1765356398545-4">
      <rect x="0" y="0" width="700" height="70" rx="4"/>
    </clipPath>
    <clipPath id="clip-1765356398545-3">
      <rect x="0" y="0" width="150" height="80" rx="8"/>
    </clipPath>
    <clipPath id="clip-1765356398545-2">
      <rect x="0" y="0" width="200" height="200" rx="8"/>
    </clipPath>
    <clipPath id="clip-1765356398545-1">
      <rect x="0" y="0" width="250" height="200" rx="8"/>
    </clipPath>
    <clipPath id="clip-1765356398545-0">
      <rect x="0" y="0" width="150" height="80" rx="8"/>
    </clipPath>
  </defs>
  
  <rect width="800" height="510" fill="url(#bgGrad)"/>
  
  <text x="400" y="35" font-family="system-ui, sans-serif" font-size="18" font-weight="bold" fill="#facc15" text-anchor="middle">Transformer Architecture</text>
  
  <!-- Input -->
  <g transform="translate(50, 80)">

    <rect x="0" y="0" width="150" height="80" fill="#4f46e5" opacity="0.3" rx="8" stroke="#6366f1" stroke-width="2"/>
    <g clip-path="url(#clip-1765356398545-0)">
    <text x="75" y="30" font-family="system-ui, sans-serif" font-size="14" font-weight="bold" fill="#fff" text-anchor="middle">Input</text>
    <text x="75" y="55" font-family="monospace" font-size="11" fill="#cbd5e1" text-anchor="middle">Tokens</text>
    <text x="75" y="75" font-family="monospace" font-size="11" fill="#cbd5e1" text-anchor="middle">+ Position</text>
    </g>

  </g>
  
  <!-- Encoder Stack -->
  <g transform="translate(250, 80)">

    <rect x="0" y="0" width="250" height="200" fill="#8b5cf6" opacity="0.3" rx="8" stroke="#a78bfa" stroke-width="2"/>
    <g clip-path="url(#clip-1765356398545-1)">
    <text x="125" y="25" font-family="system-ui, sans-serif" font-size="14" font-weight="bold" fill="#fff" text-anchor="middle">Encoder Stack</text>
    <text x="125" y="60" font-family="system-ui, sans-serif" font-size="11" fill="#fff" text-anchor="middle">Multi-Head Attention</text>
    <text x="125" y="95" font-family="system-ui, sans-serif" font-size="11" fill="#fff" text-anchor="middle">Feed Forward</text>
    <text x="125" y="130" font-family="system-ui, sans-serif" font-size="11" fill="#fff" text-anchor="middle">Multi-Head Attention</text>
    <text x="125" y="165" font-family="system-ui, sans-serif" font-size="11" fill="#fff" text-anchor="middle">Feed Forward</text>
    <text x="125" y="195" font-family="system-ui, sans-serif" font-size="10" fill="#cbd5e1" text-anchor="middle">N layers (typically 6-12)</text>
    </g>

    <!-- Layer 1 -->
    <rect x="20" y="40" width="210" height="30" fill="#6366f1" opacity="0.4" rx="4"/>

    <rect x="20" y="75" width="210" height="30" fill="#6366f1" opacity="0.4" rx="4"/>

    <!-- Layer 2 -->
    <rect x="20" y="110" width="210" height="30" fill="#6366f1" opacity="0.4" rx="4"/>

    <rect x="20" y="145" width="210" height="30" fill="#6366f1" opacity="0.4" rx="4"/>

  </g>
  
  <!-- Decoder Stack -->
  <g transform="translate(550, 80)">

    <rect x="0" y="0" width="200" height="200" fill="#ec4899" opacity="0.3" rx="8" stroke="#f472b6" stroke-width="2"/>
    <g clip-path="url(#clip-1765356398545-2)">
    <text x="100" y="25" font-family="system-ui, sans-serif" font-size="14" font-weight="bold" fill="#fff" text-anchor="middle">Decoder Stack</text>
    <text x="100" y="58" font-family="system-ui, sans-serif" font-size="10" fill="#fff" text-anchor="middle">Masked Attention</text>
    <text x="100" y="88" font-family="system-ui, sans-serif" font-size="10" fill="#fff" text-anchor="middle">Encoder-Decoder</text>
    <text x="100" y="118" font-family="system-ui, sans-serif" font-size="10" fill="#fff" text-anchor="middle">Feed Forward</text>
    </g>

    <rect x="20" y="40" width="160" height="25" fill="#f472b6" opacity="0.4" rx="4"/>

    <rect x="20" y="70" width="160" height="25" fill="#f472b6" opacity="0.4" rx="4"/>

    <rect x="20" y="100" width="160" height="25" fill="#f472b6" opacity="0.4" rx="4"/>

  </g>
  
  <!-- Output -->
  <g transform="translate(325, 320)">

    <rect x="0" y="0" width="150" height="80" fill="#10b981" opacity="0.4" rx="8" stroke="#34d399" stroke-width="3"/>
    <g clip-path="url(#clip-1765356398545-3)">
    <text x="75" y="30" font-family="system-ui, sans-serif" font-size="16" font-weight="bold" fill="#fff" text-anchor="middle">Output</text>
    <text x="75" y="55" font-family="monospace" font-size="12" fill="#cbd5e1" text-anchor="middle">Predictions</text>
    </g>

  </g>
  
  <!-- Arrows -->
  <path d="M 125.0 105.0 L 125.0 109.0 L 125.0 110.0" fill="none" stroke="#06b6d4" stroke-width="0.5" marker-end="M 125.0 105.0 L 125.0 109.0 L 125.0 110.0"/ stroke-dasharray="1.5,1.5" opacity="0.8">
  <path d="M 375.0 180.0 L 650.0 180.0" fill="none" stroke="#06b6d4" stroke-width="0.5" marker-end="M 375.0 180.0 L 650.0 180.0"/ stroke-dasharray="1.5,1.5" opacity="0.8">
  <path d="M 650.0 280.0 L 650.0 284.0 L 400.0 284.0 L 400.0 320.0" fill="none" stroke="#06b6d4" stroke-width="0.5" marker-end="M 650.0 280.0 L 650.0 284.0 L 400.0 284.0 L 400.0 320.0"/ stroke-dasharray="1.5,1.5" opacity="0.8">
  
  <!-- Key Components -->
  <g transform="translate(50, 420)">

    <rect x="0" y="0" width="700" height="70" fill="#1e293b" rx="4" stroke="#475569" stroke-width="1"/>
    <g clip-path="url(#clip-1765356398545-4)">
    <text x="350" y="25" font-family="system-ui, sans-serif" font-size="14" fill="#cbd5e1" text-anchor="middle">Key Components: Self-Attention • Multi-Head Attention • Positional Encoding • Feed-Forward Networks • Layer Normalization</text>
    <text x="350" y="50" font-family="system-ui, sans-serif" font-size="12" fill="#cbd5e1" text-anchor="middle">Processes sequences in parallel • Captures long-range dependencies • Forms basis of modern LLMs</text>
    </g>

  </g>
  
</svg>