<svg width="800" height="510" viewBox="0 0 800 510" xmlns="http://www.w3.org/2000/svg">
  <defs>
    <linearGradient id="bgGrad" x1="0%" y1="0%" x2="100%" y2="100%">
      <stop offset="0%" style="stop-color:#1f2937;stop-opacity:1" />
      <stop offset="100%" style="stop-color:#111827;stop-opacity:1" />
    </linearGradient>
    <marker id="arrowhead" markerWidth="6" markerHeight="6" refX="5" refY="2" orient="auto">
      <polygon points="0 0, 6 2, 0 4" fill="#06b6d4"/>
    </marker>
                  <clipPath id="clip-1765356398545-2">
      <rect x="0" y="0" width="700" height="90" rx="4"/>
    </clipPath>
    <clipPath id="clip-1765356398545-1">
      <rect x="0" y="0" width="300" height="300" rx="8"/>
    </clipPath>
    <clipPath id="clip-1765356398545-0">
      <rect x="0" y="0" width="300" height="300" rx="8"/>
    </clipPath>
  </defs>
  
  <rect width="800" height="510" fill="url(#bgGrad)"/>
  
  <text x="400" y="35" font-family="system-ui, sans-serif" font-size="18" font-weight="bold" fill="#facc15" text-anchor="middle">Encoder-Decoder Architecture</text>
  
  <!-- Encoder -->
  <g transform="translate(50, 80)">

    <rect x="0" y="0" width="300" height="300" fill="#4f46e5" opacity="0.3" rx="8" stroke="#6366f1" stroke-width="2"/>
    <g clip-path="url(#clip-1765356398545-0)">
    <text x="150" y="25" font-family="system-ui, sans-serif" font-size="16" font-weight="bold" fill="#fff" text-anchor="middle">Encoder</text>
    <text x="150" y="75" font-family="system-ui, sans-serif" font-size="12" fill="#fff" text-anchor="middle">Self-Attention</text>
    <text x="150" y="125" font-family="system-ui, sans-serif" font-size="12" fill="#fff" text-anchor="middle">Feed Forward</text>
    <text x="150" y="175" font-family="system-ui, sans-serif" font-size="12" fill="#fff" text-anchor="middle">Self-Attention</text>
    <text x="150" y="225" font-family="system-ui, sans-serif" font-size="12" fill="#fff" text-anchor="middle">Feed Forward</text>
    <text x="150" y="270" font-family="system-ui, sans-serif" font-size="11" fill="#cbd5e1" text-anchor="middle">Processes input sequence</text>
    <text x="150" y="290" font-family="system-ui, sans-serif" font-size="11" fill="#cbd5e1" text-anchor="middle">Bidirectional context</text>
    </g>

    <rect x="20" y="50" width="260" height="40" fill="#6366f1" opacity="0.4" rx="4"/>

    <rect x="20" y="100" width="260" height="40" fill="#6366f1" opacity="0.4" rx="4"/>

    <rect x="20" y="150" width="260" height="40" fill="#6366f1" opacity="0.4" rx="4"/>

    <rect x="20" y="200" width="260" height="40" fill="#6366f1" opacity="0.4" rx="4"/>

  </g>
  
  <!-- Decoder -->
  <g transform="translate(450, 80)">

    <rect x="0" y="0" width="300" height="300" fill="#ec4899" opacity="0.3" rx="8" stroke="#f472b6" stroke-width="2"/>
    <g clip-path="url(#clip-1765356398545-1)">
    <text x="150" y="25" font-family="system-ui, sans-serif" font-size="16" font-weight="bold" fill="#fff" text-anchor="middle">Decoder</text>
    <text x="150" y="70" font-family="system-ui, sans-serif" font-size="11" fill="#fff" text-anchor="middle">Masked Self-Attention</text>
    <text x="150" y="110" font-family="system-ui, sans-serif" font-size="11" fill="#fff" text-anchor="middle">Encoder-Decoder Attention</text>
    <text x="150" y="150" font-family="system-ui, sans-serif" font-size="11" fill="#fff" text-anchor="middle">Feed Forward</text>
    <text x="150" y="190" font-family="system-ui, sans-serif" font-size="11" fill="#fff" text-anchor="middle">Masked Self-Attention</text>
    <text x="150" y="230" font-family="system-ui, sans-serif" font-size="11" fill="#fff" text-anchor="middle">Encoder-Decoder Attention</text>
    <text x="150" y="270" font-family="system-ui, sans-serif" font-size="11" fill="#fff" text-anchor="middle">Feed Forward</text>
    <text x="150" y="295" font-family="system-ui, sans-serif" font-size="11" fill="#cbd5e1" text-anchor="middle">Generates output sequence</text>
    </g>

    <rect x="20" y="50" width="260" height="30" fill="#f472b6" opacity="0.4" rx="4"/>

    <rect x="20" y="90" width="260" height="30" fill="#f472b6" opacity="0.4" rx="4"/>

    <rect x="20" y="130" width="260" height="30" fill="#f472b6" opacity="0.4" rx="4"/>

    <rect x="20" y="170" width="260" height="30" fill="#f472b6" opacity="0.4" rx="4"/>

    <rect x="20" y="210" width="260" height="30" fill="#f472b6" opacity="0.4" rx="4"/>

    <rect x="20" y="250" width="260" height="30" fill="#f472b6" opacity="0.4" rx="4"/>

  </g>
  
  <!-- Connection -->
  <path d="M 150.0 240.0 L 150.0 244.0 L 600.0 244.0 L 600.0 80.0" fill="none" stroke="#facc15" stroke-width="0.5" marker-end="url(#arrowhead)" stroke-dasharray="1.5,1.5" opacity="0.8"/><text x="400" y="220" font-family="system-ui, sans-serif" font-size="11" fill="#facc15" text-anchor="middle">Encoder output</text>
  <text x="400" y="240" font-family="system-ui, sans-serif" font-size="11" fill="#facc15" text-anchor="middle">to decoder</text>
  
  <!-- Use Cases -->
  <g transform="translate(50, 400)">

    <rect x="0" y="0" width="700" height="90" fill="#1e293b" rx="4" stroke="#475569" stroke-width="1"/>
    <g clip-path="url(#clip-1765356398545-2)">
    <text x="350" y="25" font-family="system-ui, sans-serif" font-size="16" font-weight="bold" fill="#facc15" text-anchor="middle">Encoder-Decoder Use Cases</text>
    <text x="150" y="55" font-family="system-ui, sans-serif" font-size="12" fill="#cbd5e1" text-anchor="middle">Machine Translation</text>
    <text x="150" y="75" font-family="system-ui, sans-serif" font-size="12" fill="#cbd5e1" text-anchor="middle">Text Summarization</text>
    <text x="400" y="55" font-family="system-ui, sans-serif" font-size="12" fill="#cbd5e1" text-anchor="middle">Question Answering</text>
    <text x="400" y="75" font-family="system-ui, sans-serif" font-size="12" fill="#cbd5e1" text-anchor="middle">Text Generation</text>
    <text x="650" y="55" font-family="system-ui, sans-serif" font-size="12" fill="#cbd5e1" text-anchor="middle">Dialogue Systems</text>
    <text x="650" y="75" font-family="system-ui, sans-serif" font-size="12" fill="#cbd5e1" text-anchor="middle">Code Generation</text>
    </g>

  </g>
  
</svg>
