<svg width="1200" height="400" viewBox="0 0 1200 400" xmlns="http://www.w3.org/2000/svg">
  <defs>
    <linearGradient id="bgGrad8" x1="0%" y1="0%" x2="100%" y2="100%">
      <stop offset="0%" style="stop-color:#030609;stop-opacity:1" />
      <stop offset="25%" style="stop-color:#0a0f17;stop-opacity:1" />
      <stop offset="50%" style="stop-color:#151b25;stop-opacity:1" />
      <stop offset="75%" style="stop-color:#242a35;stop-opacity:1" />
      <stop offset="100%" style="stop-color:#343942;stop-opacity:1" />
    </linearGradient>
    <linearGradient id="accentGrad8" x1="0%" y1="0%" x2="100%" y2="100%">
      <stop offset="0%" style="stop-color:#f59e0b;stop-opacity:0.25" />
      <stop offset="50%" style="stop-color:#f59e0b;stop-opacity:0.15" />
      <stop offset="100%" style="stop-color:#f59e0b;stop-opacity:0.05" />
    </linearGradient>
    <radialGradient id="glowRad8" cx="50%" cy="50%">
      <stop offset="0%" style="stop-color:#f59e0b;stop-opacity:0.5" />
      <stop offset="100%" style="stop-color:#f59e0b;stop-opacity:0" />
    </radialGradient>
  </defs>
  
  <!-- Background layers -->
  <rect width="1200" height="400" fill="url(#bgGrad8)"/>
  <rect width="1200" height="400" fill="url(#accentGrad8)"/>
  
  <!-- Decorative glow circles -->
  <circle cx="150" cy="80" r="100" fill="url(#glowRad8)" opacity="0.3"/>
  <circle cx="1050" cy="320" r="120" fill="url(#glowRad8)" opacity="0.2"/>
  
  <!-- Topic-specific visual element -->
  <g transform="translate(0, 0)" opacity="0.7">
    <rect x="180" y="120" width="140" height="60" fill="none" stroke="#f59e0b" stroke-width="3" opacity="0.6" rx="8"/><line x1="250" y1="120" x2="250" y2="180" stroke="#f59e0b" stroke-width="2" opacity="0.4"/><circle cx="215" cy="150" r="8" fill="#f59e0b" opacity="0.6"/><circle cx="285" cy="150" r="8" fill="#f59e0b" opacity="0.6"/><path d="M 180 150 L 130 130 L 130 170 Z" fill="#f59e0b" opacity="0.4"/><path d="M 320 150 L 370 130 L 370 170 Z" fill="#f59e0b" opacity="0.4"/>
  </g>
  
  <!-- Icon -->
  <g transform="translate(100, 140)" opacity="0.5">
    <text x="0" y="0" font-family="Arial, sans-serif" font-size="100" fill="#f59e0b" text-anchor="middle">🔄</text>
  </g>
  
  <!-- Subtle grid pattern -->
  <g opacity="0.03" stroke="#f59e0b" stroke-width="1">
    <line x1="0" y1="100" x2="1200" y2="100"/>
    <line x1="0" y1="200" x2="1200" y2="200"/>
    <line x1="0" y1="300" x2="1200" y2="300"/>
    <line x1="400" y1="0" x2="400" y2="400"/>
    <line x1="800" y1="0" x2="800" y2="400"/>
  </g>
  
  <!-- Main Title -->
  <text x="600" y="170" font-family="system-ui, -apple-system, sans-serif" font-size="18" font-weight="700" fill="#facc15" text-anchor="middle" letter-spacing="-0.5px">
    Transformers: Architecture and Self-Attention
  </text>
  
  <!-- Tutorial Info Badge -->
  <g transform="translate(600, 275)">
    <rect x="-250" y="-25" width="500" height="50" rx="25" fill="rgba(15, 23, 42, 0.8)" stroke="#3b82f6" stroke-width="1.5" opacity="0.8"/>
    <text x="-140" y="6" font-family="system-ui, -apple-system, sans-serif" font-size="16" fill="#e2e8f0" text-anchor="start" font-weight="500">Tutorial 08</text>
    <text x="0" y="6" font-family="system-ui, -apple-system, sans-serif" font-size="16" fill="#3b82f6" text-anchor="start" font-weight="600">Intermediate</text>
    <text x="110" y="6" font-family="system-ui, -apple-system, sans-serif" font-size="16" fill="#cbd5e1" text-anchor="start">Transformers</text>
  </g>
</svg>