<svg width="800" height="500" viewBox="0 0 800 500" xmlns="http://www.w3.org/2000/svg">
  <defs>
    <linearGradient id="overfitBg" x1="0%" y1="0%" x2="100%" y2="100%">
      <stop offset="0%" style="stop-color:#1f2937;stop-opacity:1" />
      <stop offset="100%" style="stop-color:#111827;stop-opacity:1" />
    </linearGradient>
    <clipPath id="clipPerformance1"><rect x="20" y="75" width="120" height="25"/></clipPath>
    <clipPath id="clipPerformance2"><rect x="160" y="75" width="120" height="25"/></clipPath>
    <clipPath id="clipPerformance3"><rect x="20" y="145" width="120" height="25"/></clipPath>
    <clipPath id="clipPerformance4"><rect x="160" y="145" width="120" height="25"/></clipPath>
  </defs>
  
  <rect width="800" height="500" fill="url(#overfitBg)"/>
  
  <text x="400" y="40" font-family="system-ui, sans-serif" font-size="24" font-weight="bold" fill="#facc15" text-anchor="middle">Overfitting Problem</text>
  
  <!-- Good Fit -->
  <g transform="translate(50, 80)">
    <text x="325" y="30" font-family="system-ui, sans-serif" font-size="18" font-weight="bold" fill="#10b981" text-anchor="middle">Good Fit Model</text>
    
    <!-- Data Points -->
    <g transform="translate(50, 60)">
      <circle cx="20" cy="100" r="4" fill="#10b981"/>
      <circle cx="60" cy="80" r="4" fill="#10b981"/>
      <circle cx="100" cy="90" r="4" fill="#10b981"/>
      <circle cx="140" cy="70" r="4" fill="#10b981"/>
      <circle cx="180" cy="85" r="4" fill="#10b981"/>
      <circle cx="220" cy="75" r="4" fill="#10b981"/>
      <circle cx="260" cy="80" r="4" fill="#10b981"/>
      <circle cx="300" cy="78" r="4" fill="#10b981"/>
      
      <!-- Good Fit Curve -->
      <path d="M 20 100 Q 100 85 180 85 T 300 78" fill="none" stroke="#10b981" stroke-width="3" opacity="0.8"/>
      
      <text x="160" y="140" font-family="system-ui, sans-serif" font-size="12" fill="#10b981" text-anchor="middle">Generalizes well to new data</text>
    </g>
  </g>
  
  <!-- Overfitting -->
  <g transform="translate(50, 260)">
    <text x="325" y="30" font-family="system-ui, sans-serif" font-size="18" font-weight="bold" fill="#ef4444" text-anchor="middle">Overfitted Model</text>
    
    <!-- Data Points -->
    <g transform="translate(50, 60)">
      <circle cx="20" cy="100" r="4" fill="#ef4444"/>
      <circle cx="60" cy="80" r="4" fill="#ef4444"/>
      <circle cx="100" cy="90" r="4" fill="#ef4444"/>
      <circle cx="140" cy="70" r="4" fill="#ef4444"/>
      <circle cx="180" cy="85" r="4" fill="#ef4444"/>
      <circle cx="220" cy="75" r="4" fill="#ef4444"/>
      <circle cx="260" cy="80" r="4" fill="#ef4444"/>
      <circle cx="300" cy="78" r="4" fill="#ef4444"/>
      
      <!-- Overfitted Curve - wiggly line through all points -->
      <path d="M 20 100 Q 30 95 40 100 Q 50 90 60 80 Q 70 85 80 88 Q 90 92 100 90 Q 110 85 120 82 Q 130 78 140 70 Q 150 73 160 77 Q 170 82 180 85 Q 190 83 200 79 Q 210 76 220 75 Q 230 77 240 78 Q 250 79 260 80 Q 270 79 280 78.5 Q 290 78 300 78" fill="none" stroke="#ef4444" stroke-width="3" opacity="0.8"/>
      
      <text x="160" y="140" font-family="system-ui, sans-serif" font-size="12" fill="#ef4444" text-anchor="middle">Memorizes training data, fails on new data</text>
    </g>
  </g>
  
  <!-- Performance Comparison -->
  <g transform="translate(450, 80)">
    <rect x="0" y="0" width="300" height="350" fill="#1e293b" rx="4" stroke="#475569" stroke-width="1"/>
    <text x="150" y="30" font-family="system-ui, sans-serif" font-size="16" font-weight="bold" fill="#facc15" text-anchor="middle">Performance Comparison</text>
    
    <!-- Training Performance -->
    <text x="20" y="65" font-family="system-ui, sans-serif" font-size="14" font-weight="bold" fill="#94a3b8">Training Data:</text>
    <rect x="20" y="75" width="120" height="25" fill="#10b981" opacity="0.3" rx="4"/>
    <text x="80" y="92" font-family="system-ui, sans-serif" font-size="11" fill="#fff" text-anchor="middle" clip-path="url(#clipPerformance1)">Good Fit: 85%</text>
    
    <rect x="160" y="75" width="120" height="25" fill="#ef4444" opacity="0.3" rx="4"/>
    <text x="220" y="92" font-family="system-ui, sans-serif" font-size="11" fill="#fff" text-anchor="middle" clip-path="url(#clipPerformance2)">Overfit: 98%</text>
    
    <!-- Test Performance -->
    <text x="20" y="135" font-family="system-ui, sans-serif" font-size="14" font-weight="bold" fill="#94a3b8">Test Data:</text>
    <rect x="20" y="145" width="120" height="25" fill="#10b981" opacity="0.5" rx="4"/>
    <text x="80" y="162" font-family="system-ui, sans-serif" font-size="11" fill="#fff" text-anchor="middle" clip-path="url(#clipPerformance3)">Good Fit: 82%</text>
    
    <rect x="160" y="145" width="120" height="25" fill="#ef4444" opacity="0.5" rx="4"/>
    <text x="220" y="162" font-family="system-ui, sans-serif" font-size="11" fill="#fff" text-anchor="middle" clip-path="url(#clipPerformance4)">Overfit: 45%</text>
    
    <!-- Solutions -->
    <text x="20" y="210" font-family="system-ui, sans-serif" font-size="14" font-weight="bold" fill="#f59e0b">Solutions:</text>
    <text x="30" y="235" font-family="system-ui, sans-serif" font-size="12" fill="#cbd5e1">• Regularization (L1, L2)</text>
    <text x="30" y="255" font-family="system-ui, sans-serif" font-size="12" fill="#cbd5e1">• More training data</text>
    <text x="30" y="275" font-family="system-ui, sans-serif" font-size="12" fill="#cbd5e1">• Simpler models</text>
    <text x="30" y="295" font-family="system-ui, sans-serif" font-size="12" fill="#cbd5e1">• Cross-validation</text>
    <text x="30" y="315" font-family="system-ui, sans-serif" font-size="12" fill="#cbd5e1">• Early stopping</text>
  </g>
</svg>

