<svg width="800" height="600" viewBox="0 0 800 600" xmlns="http://www.w3.org/2000/svg">
  <defs>
    <linearGradient id="nnBg" x1="0%" y1="0%" x2="100%" y2="100%">
      <stop offset="0%" style="stop-color:#1f2937;stop-opacity:1" />
      <stop offset="100%" style="stop-color:#111827;stop-opacity:1" />
    </linearGradient>
  </defs>
  
  <rect width="800" height="600" fill="url(#nnBg)"/>
  
  <text x="400" y="40" font-family="system-ui, sans-serif" font-size="24" font-weight="bold" fill="#facc15" text-anchor="middle">Neural Network Architecture</text>
  
  <!-- Input Layer -->
  <g transform="translate(80, 120)">
    <text x="0" y="-10" font-family="system-ui, sans-serif" font-size="14" font-weight="bold" fill="#94a3b8" text-anchor="middle">Input Layer</text>
    <circle cx="0" cy="20" r="15" fill="#4f46e5" opacity="0.6"/>
    <text x="0" y="25" font-family="system-ui, sans-serif" font-size="10" fill="#fff" text-anchor="middle">X₁</text>
    
    <circle cx="0" cy="60" r="15" fill="#4f46e5" opacity="0.6"/>
    <text x="0" y="65" font-family="system-ui, sans-serif" font-size="10" fill="#fff" text-anchor="middle">X₂</text>
    
    <circle cx="0" cy="100" r="15" fill="#4f46e5" opacity="0.6"/>
    <text x="0" y="105" font-family="system-ui, sans-serif" font-size="10" fill="#fff" text-anchor="middle">X₃</text>
  </g>
  
  <!-- Hidden Layer 1 -->
  <g transform="translate(300, 80)">
    <text x="0" y="-10" font-family="system-ui, sans-serif" font-size="14" font-weight="bold" fill="#94a3b8" text-anchor="middle">Hidden Layer 1</text>
    <circle cx="0" cy="20" r="15" fill="#6366f1" opacity="0.6"/>
    <text x="0" y="25" font-family="system-ui, sans-serif" font-size="10" fill="#fff" text-anchor="middle">H₁</text>
    
    <circle cx="0" cy="60" r="15" fill="#6366f1" opacity="0.6"/>
    <text x="0" y="65" font-family="system-ui, sans-serif" font-size="10" fill="#fff" text-anchor="middle">H₂</text>
    
    <circle cx="0" cy="100" r="15" fill="#6366f1" opacity="0.6"/>
    <text x="0" y="105" font-family="system-ui, sans-serif" font-size="10" fill="#fff" text-anchor="middle">H₃</text>
    
    <circle cx="0" cy="140" r="15" fill="#6366f1" opacity="0.6"/>
    <text x="0" y="145" font-family="system-ui, sans-serif" font-size="10" fill="#fff" text-anchor="middle">H₄</text>
  </g>
  
  <!-- Hidden Layer 2 -->
  <g transform="translate(520, 100)">
    <text x="0" y="-10" font-family="system-ui, sans-serif" font-size="14" font-weight="bold" fill="#94a3b8" text-anchor="middle">Hidden Layer 2</text>
    <circle cx="0" cy="20" r="15" fill="#818cf8" opacity="0.6"/>
    <text x="0" y="25" font-family="system-ui, sans-serif" font-size="10" fill="#fff" text-anchor="middle">H₅</text>
    
    <circle cx="0" cy="60" r="15" fill="#818cf8" opacity="0.6"/>
    <text x="0" y="65" font-family="system-ui, sans-serif" font-size="10" fill="#fff" text-anchor="middle">H₆</text>
    
    <circle cx="0" cy="100" r="15" fill="#818cf8" opacity="0.6"/>
    <text x="0" y="105" font-family="system-ui, sans-serif" font-size="10" fill="#fff" text-anchor="middle">H₇</text>
  </g>
  
  <!-- Output Layer -->
  <g transform="translate(720, 130)">
    <text x="0" y="-10" font-family="system-ui, sans-serif" font-size="14" font-weight="bold" fill="#94a3b8" text-anchor="middle">Output Layer</text>
    <circle cx="0" cy="20" r="15" fill="#10b981" opacity="0.6"/>
    <text x="0" y="25" font-family="system-ui, sans-serif" font-size="10" fill="#fff" text-anchor="middle">Y₁</text>
    
    <circle cx="0" cy="80" r="15" fill="#10b981" opacity="0.6"/>
    <text x="0" y="85" font-family="system-ui, sans-serif" font-size="10" fill="#fff" text-anchor="middle">Y₂</text>
  </g>
  
  <!-- Connections Input to Hidden 1 -->
  <g opacity="0.3">
    <line x1="95" y1="130" x2="300" y2="90" stroke="#06b6d4" stroke-width="1"/>
    <line x1="95" y1="130" x2="300" y2="110" stroke="#06b6d4" stroke-width="1"/>
    <line x1="95" y1="130" x2="300" y2="130" stroke="#06b6d4" stroke-width="1"/>
    <line x1="95" y1="130" x2="300" y2="150" stroke="#06b6d4" stroke-width="1"/>
    
    <line x1="95" y1="170" x2="300" y2="90" stroke="#06b6d4" stroke-width="1"/>
    <line x1="95" y1="170" x2="300" y2="110" stroke="#06b6d4" stroke-width="1"/>
    <line x1="95" y1="170" x2="300" y2="130" stroke="#06b6d4" stroke-width="1"/>
    <line x1="95" y1="170" x2="300" y2="150" stroke="#06b6d4" stroke-width="1"/>
    
    <line x1="95" y1="210" x2="300" y2="90" stroke="#06b6d4" stroke-width="1"/>
    <line x1="95" y1="210" x2="300" y2="110" stroke="#06b6d4" stroke-width="1"/>
    <line x1="95" y1="210" x2="300" y2="130" stroke="#06b6d4" stroke-width="1"/>
    <line x1="95" y1="210" x2="300" y2="150" stroke="#06b6d4" stroke-width="1"/>
  </g>
  
  <!-- Connections Hidden 1 to Hidden 2 -->
  <g opacity="0.3">
    <line x1="315" y1="90" x2="520" y2="110" stroke="#06b6d4" stroke-width="1"/>
    <line x1="315" y1="90" x2="520" y2="130" stroke="#06b6d4" stroke-width="1"/>
    <line x1="315" y1="90" x2="520" y2="150" stroke="#06b6d4" stroke-width="1"/>
    
    <line x1="315" y1="130" x2="520" y2="110" stroke="#06b6d4" stroke-width="1"/>
    <line x1="315" y1="130" x2="520" y2="130" stroke="#06b6d4" stroke-width="1"/>
    <line x1="315" y1="130" x2="520" y2="150" stroke="#06b6d4" stroke-width="1"/>
    
    <line x1="315" y1="170" x2="520" y2="110" stroke="#06b6d4" stroke-width="1"/>
    <line x1="315" y1="170" x2="520" y2="130" stroke="#06b6d4" stroke-width="1"/>
    <line x1="315" y1="170" x2="520" y2="150" stroke="#06b6d4" stroke-width="1"/>
  </g>
  
  <!-- Connections Hidden 2 to Output -->
  <g opacity="0.3">
    <line x1="535" y1="110" x2="720" y2="140" stroke="#06b6d4" stroke-width="1"/>
    <line x1="535" y1="110" x2="720" y2="200" stroke="#06b6d4" stroke-width="1"/>
    
    <line x1="535" y1="150" x2="720" y2="140" stroke="#06b6d4" stroke-width="1"/>
    <line x1="535" y1="150" x2="720" y2="200" stroke="#06b6d4" stroke-width="1"/>
    
    <line x1="535" y1="190" x2="720" y2="140" stroke="#06b6d4" stroke-width="1"/>
    <line x1="535" y1="190" x2="720" y2="200" stroke="#06b6d4" stroke-width="1"/>
  </g>
  
  <!-- Explanation -->
  <g transform="translate(50, 350)">
    <rect x="0" y="0" width="700" height="220" fill="#1e293b" rx="4" stroke="#475569" stroke-width="1"/>
    <text x="350" y="30" font-family="system-ui, sans-serif" font-size="16" font-weight="bold" fill="#facc15" text-anchor="middle">Neural Network Components</text>
    
    <text x="20" y="65" font-family="system-ui, sans-serif" font-size="14" font-weight="bold" fill="#4f46e5">Layers:</text>
    <text x="30" y="90" font-family="system-ui, sans-serif" font-size="12" fill="#cbd5e1">Input layer receives features. Hidden layers process information through weighted connections.</text>
    <text x="30" y="110" font-family="system-ui, sans-serif" font-size="12" fill="#cbd5e1">Output layer produces predictions. More layers enable learning complex patterns.</text>
    
    <text x="20" y="145" font-family="system-ui, sans-serif" font-size="14" font-weight="bold" fill="#6366f1">Weights:</text>
    <text x="30" y="170" font-family="system-ui, sans-serif" font-size="12" fill="#cbd5e1">Each connection has a weight. Training adjusts weights to minimize prediction errors.</text>
    <text x="30" y="190" font-family="system-ui, sans-serif" font-size="12" fill="#cbd5e1">Activation functions introduce non-linearity. Common functions include ReLU, sigmoid, and tanh.</text>
    
    <text x="20" y="220" font-family="system-ui, sans-serif" font-size="14" font-weight="bold" fill="#10b981">Training:</text>
    <text x="30" y="240" font-family="system-ui, sans-serif" font-size="12" fill="#cbd5e1">Backpropagation computes gradients. Optimizers update weights. Multiple epochs improve performance.</text>
  </g>
</svg>

