<svg width="1200" height="233" viewBox="0 0 1200 233" xmlns="http://www.w3.org/2000/svg">
  <defs>
    <linearGradient id="bgGradient3" x1="0%" y1="0%" x2="100%" y2="100%">
      <stop offset="0%" style="stop-color:#030609;stop-opacity:1" />
      <stop offset="25%" style="stop-color:#0a0f17;stop-opacity:1" />
      <stop offset="50%" style="stop-color:#151b25;stop-opacity:1" />
      <stop offset="75%" style="stop-color:#242a35;stop-opacity:1" />
      <stop offset="100%" style="stop-color:#343942;stop-opacity:1" />
    </linearGradient>
    <linearGradient id="overlayGradient3" x1="0%" y1="0%" x2="100%" y2="100%">
      <stop offset="0%" style="stop-color:#4f46e5;stop-opacity:0.25" />
      <stop offset="50%" style="stop-color:#06b6d4;stop-opacity:0.25" />
      <stop offset="100%" style="stop-color:#10b981;stop-opacity:0.25" />
    </linearGradient>
    <linearGradient id="textGradient3" x1="0%" y1="0%" x2="100%" y2="0%">
      <stop offset="0%" style="stop-color:#4f46e5;stop-opacity:1" />
      <stop offset="50%" style="stop-color:#06b6d4;stop-opacity:1" />
      <stop offset="100%" style="stop-color:#10b981;stop-opacity:1" />
    </linearGradient>
  </defs>
  
  <rect width="1200" height="233" fill="url(#bgGradient3)"/>
  <rect width="1200" height="233" fill="url(#overlayGradient3)"/>
  
  <g opacity="0.1">
    <circle cx="100" cy="60" r="3" fill="#fff"/>
    <circle cx="150" cy="87" r="2" fill="#fff"/>
    <circle cx="200" cy="47" r="2.5" fill="#fff"/>
    <circle cx="1000" cy="173" r="3" fill="#fff"/>
    <circle cx="1100" cy="117" r="2" fill="#fff"/>
  </g>
  
  <!-- Database visualization -->
  <g transform="translate(100, 40)" opacity="0.8">
    <!-- Database icon -->
    <rect x="0" y="67" width="120" height="47" rx="4" fill="none" stroke="#06b6d4" stroke-width="3"/>
    <line x1="20" y1="80" x2="100" y2="80" stroke="#06b6d4" stroke-width="2"/>
    <line x1="20" y1="93" x2="100" y2="93" stroke="#06b6d4" stroke-width="2"/>
    <line x1="20" y1="107" x2="100" y2="107" stroke="#06b6d4" stroke-width="2"/>
    <!-- Vector arrows from database -->
    <g stroke="#10b981" stroke-width="3" fill="#10b981">
      <line x1="120" y1="90" x2="200" y2="57"/>
      <polygon points="195,60 205,57 195,54"/>
      <line x1="120" y1="90" x2="240" y2="43"/>
      <polygon points="235,47 245,43 235,39"/>
    </g>
  </g>
  
  <!-- Vector space grid -->
  <g transform="translate(800, 53)" opacity="0.4">
    <line x1="0" y1="0" x2="200" y2="0" stroke="#06b6d4" stroke-width="1"/>
    <line x1="0" y1="27" x2="200" y2="27" stroke="#06b6d4" stroke-width="1"/>
    <line x1="0" y1="53" x2="200" y2="53" stroke="#06b6d4" stroke-width="1"/>
    <line x1="0" y1="80" x2="200" y2="80" stroke="#06b6d4" stroke-width="1"/>
    <line x1="0" y1="107" x2="200" y2="107" stroke="#06b6d4" stroke-width="1"/>
    <line x1="0" y1="0" x2="0" y2="107" stroke="#06b6d4" stroke-width="1"/>
    <line x1="50" y1="0" x2="50" y2="107" stroke="#06b6d4" stroke-width="1"/>
    <line x1="100" y1="0" x2="100" y2="107" stroke="#06b6d4" stroke-width="1"/>
    <line x1="150" y1="0" x2="150" y2="107" stroke="#06b6d4" stroke-width="1"/>
    <line x1="200" y1="0" x2="200" y2="107" stroke="#06b6d4" stroke-width="1"/>
  </g>
  
  <text x="600" y="107" font-family="system-ui, -apple-system, sans-serif" font-size="56" font-weight="300" fill="url(#textGradient3)" text-anchor="middle">
    PostgreSQL as a
  </text>
  
  <text x="600" y="133" font-family="system-ui, -apple-system, sans-serif" font-size="56" font-weight="300" fill="url(#textGradient3)" text-anchor="middle">
    Vector Database
  </text>
  
  <g transform="translate(280, 153)">
    <rect x="0" y="0" width="130" height="30" rx="15" fill="#4f46e5" opacity="0.6"/>
    <text x="65" y="20" fill="#fff" font-size="14" text-anchor="middle">ACID Transactions</text>
  </g>
  <g transform="translate(430, 153)">
    <rect x="0" y="0" width="130" height="30" rx="15" fill="#06b6d4" opacity="0.6"/>
    <text x="65" y="20" fill="#fff" font-size="14" text-anchor="middle">HNSW Indexing</text>
  </g>
  <g transform="translate(580, 153)">
    <rect x="0" y="0" width="130" height="30" rx="15" fill="#10b981" opacity="0.6"/>
    <text x="65" y="20" fill="#fff" font-size="14" text-anchor="middle">SQL Interface</text>
  </g>
  <g transform="translate(730, 153)">
    <rect x="0" y="0" width="130" height="30" rx="15" fill="#8b5cf6" opacity="0.6"/>
    <text x="65" y="20" fill="#fff" font-size="14" text-anchor="middle">Unified Storage</text>
  </g>
</svg>
