<svg width="800" height="510" viewBox="0 0 800 510" xmlns="http://www.w3.org/2000/svg">
  <defs>
    <linearGradient id="bgGrad" x1="0%" y1="0%" x2="100%" y2="100%">
      <stop offset="0%" style="stop-color:#1f2937;stop-opacity:1" />
      <stop offset="100%" style="stop-color:#111827;stop-opacity:1" />
    </linearGradient>
                  <clipPath id="clip-1765356398552-2">
      <rect x="0" y="0" width="700" height="180" rx="4"/>
    </clipPath>
    <clipPath id="clip-1765356398552-1">
      <rect x="0" y="0" width="320" height="200" rx="4"/>
    </clipPath>
    <clipPath id="clip-1765356398552-0">
      <rect x="0" y="0" width="320" height="200" rx="4"/>
    </clipPath>
  </defs>
  
  <rect width="800" height="510" fill="url(#bgGrad)"/>
  
  <text x="400" y="35" font-family="system-ui, sans-serif" font-size="18" font-weight="bold" fill="#facc15" text-anchor="middle">Batch vs Real-time Inference</text>
  
  <!-- Batch -->
  <g transform="translate(50, 80)">

    <rect x="0" y="0" width="320" height="200" fill="#1e293b" rx="4" stroke="#475569" stroke-width="1"/>
    <g clip-path="url(#clip-1765356398552-0)">
    <text x="160" y="25" font-family="system-ui, sans-serif" font-size="14" font-weight="bold" fill="#06b6d4" text-anchor="middle">Batch Inference</text>
    <text x="50" y="70" font-family="monospace" font-size="9" fill="#fff" text-anchor="middle">Req 1</text>
    <text x="120" y="70" font-family="monospace" font-size="9" fill="#fff" text-anchor="middle">Req 2</text>
    <text x="190" y="70" font-family="monospace" font-size="9" fill="#fff" text-anchor="middle">Req 3</text>
    <text x="260" y="70" font-family="monospace" font-size="9" fill="#fff" text-anchor="middle">...</text>
    <text x="160" y="125" font-family="system-ui, sans-serif" font-size="11" fill="#fff" text-anchor="middle">Process together</text>
    <text x="160" y="165" font-family="system-ui, sans-serif" font-size="11" fill="#cbd5e1" text-anchor="middle">High throughput</text>
    <text x="160" y="185" font-family="system-ui, sans-serif" font-size="11" fill="#cbd5e1" text-anchor="middle">Efficient for large volumes</text>
    </g>

    <rect x="20" y="50" width="60" height="30" fill="#06b6d4" opacity="0.3" rx="4"/>

    <rect x="90" y="50" width="60" height="30" fill="#06b6d4" opacity="0.3" rx="4"/>

    <rect x="160" y="50" width="60" height="30" fill="#06b6d4" opacity="0.3" rx="4"/>

    <rect x="230" y="50" width="60" height="30" fill="#06b6d4" opacity="0.3" rx="4"/>

    <rect x="50" y="100" width="220" height="40" fill="#10b981" opacity="0.3" rx="4"/>

  </g>
  
  <!-- Real-time -->
  <g transform="translate(430, 80)">

    <rect x="0" y="0" width="320" height="200" fill="#1e293b" rx="4" stroke="#475569" stroke-width="1"/>
    <g clip-path="url(#clip-1765356398552-1)">
    <text x="160" y="25" font-family="system-ui, sans-serif" font-size="14" font-weight="bold" fill="#f59e0b" text-anchor="middle">Real-time Inference</text>
    <text x="50" y="70" font-family="monospace" font-size="9" fill="#fff" text-anchor="middle">Req 1</text>
    <text x="50" y="110" font-family="monospace" font-size="9" fill="#fff" text-anchor="middle">Resp 1</text>
    <text x="130" y="70" font-family="monospace" font-size="9" fill="#fff" text-anchor="middle">Req 2</text>
    <text x="130" y="110" font-family="monospace" font-size="9" fill="#fff" text-anchor="middle">Resp 2</text>
    <text x="160" y="165" font-family="system-ui, sans-serif" font-size="11" fill="#cbd5e1" text-anchor="middle">Low latency</text>
    <text x="160" y="185" font-family="system-ui, sans-serif" font-size="11" fill="#cbd5e1" text-anchor="middle">Immediate responses</text>
    </g>

    <rect x="20" y="50" width="60" height="30" fill="#f59e0b" opacity="0.3" rx="4"/>
    
    <rect x="20" y="90" width="60" height="30" fill="#10b981" opacity="0.3" rx="4"/>

    <rect x="100" y="50" width="60" height="30" fill="#f59e0b" opacity="0.3" rx="4"/>
    
    <rect x="100" y="90" width="60" height="30" fill="#10b981" opacity="0.3" rx="4"/>

  </g>
  
  <!-- Comparison -->
  <g transform="translate(50, 300)">

    <rect x="0" y="0" width="700" height="180" fill="#1e293b" rx="4" stroke="#475569" stroke-width="1"/>
    <g clip-path="url(#clip-1765356398552-2)">
    <text x="350" y="30" font-family="system-ui, sans-serif" font-size="16" font-weight="bold" fill="#facc15" text-anchor="middle">When to Use Each</text>
    <text x="190" y="75" font-family="system-ui, sans-serif" font-size="13" font-weight="bold" fill="#fff" text-anchor="middle">Batch Inference</text>
    <text x="70" y="100" font-family="system-ui, sans-serif" font-size="11" fill="#cbd5e1">• Large volumes</text>
    <text x="70" y="120" font-family="system-ui, sans-serif" font-size="11" fill="#cbd5e1">• Latency not critical</text>
    <text x="70" y="140" font-family="system-ui, sans-serif" font-size="11" fill="#cbd5e1">• Maximize throughput</text>
    <text x="70" y="160" font-family="system-ui, sans-serif" font-size="11" fill="#cbd5e1">• Data processing pipelines</text>
    <text x="510" y="75" font-family="system-ui, sans-serif" font-size="13" font-weight="bold" fill="#fff" text-anchor="middle">Real-time Inference</text>
    <text x="390" y="100" font-family="system-ui, sans-serif" font-size="11" fill="#cbd5e1">• User-facing applications</text>
    <text x="390" y="120" font-family="system-ui, sans-serif" font-size="11" fill="#cbd5e1">• Low latency required</text>
    <text x="390" y="140" font-family="system-ui, sans-serif" font-size="11" fill="#cbd5e1">• Interactive systems</text>
    <text x="390" y="160" font-family="system-ui, sans-serif" font-size="11" fill="#cbd5e1">• Chat, search, recommendations</text>
    </g>

    <rect x="50" y="50" width="280" height="110" fill="#4f46e5" opacity="0.2" rx="4" stroke="#6366f1" stroke-width="1"/>

    <rect x="370" y="50" width="280" height="110" fill="#8b5cf6" opacity="0.2" rx="4" stroke="#a78bfa" stroke-width="1"/>

  </g>
  
</svg>
