<svg width="800" height="510" viewBox="0 0 800 510" xmlns="http://www.w3.org/2000/svg">
  <defs>
    <linearGradient id="bgGrad" x1="0%" y1="0%" x2="100%" y2="100%">
      <stop offset="0%" style="stop-color:#1f2937;stop-opacity:1" />
      <stop offset="100%" style="stop-color:#111827;stop-opacity:1" />
    </linearGradient>
    <marker id="arrowhead" markerWidth="6" markerHeight="6" refX="5" refY="2" orient="auto">
      <polygon points="0 0, 6 2, 0 4" fill="#06b6d4"/>
    </marker>
                  <clipPath id="clip-1765356398539-7">
      <rect x="0" y="0" width="190" height="80" rx="8"/>
    </clipPath>
    <clipPath id="clip-1765356398539-6">
      <rect x="0" y="0" width="120" height="80" rx="8"/>
    </clipPath>
    <clipPath id="clip-1765356398539-5">
      <rect x="0" y="0" width="120" height="80" rx="8"/>
    </clipPath>
    <clipPath id="clip-1765356398539-4">
      <rect x="0" y="0" width="120" height="80" rx="8"/>
    </clipPath>
    <clipPath id="clip-1765356398539-3">
      <rect x="0" y="0" width="120" height="80" rx="8"/>
    </clipPath>
    <clipPath id="clip-1765356398539-2">
      <rect x="0" y="0" width="120" height="80" rx="8"/>
    </clipPath>
    <clipPath id="clip-1765356398539-1">
      <rect x="0" y="0" width="120" height="80" rx="8"/>
    </clipPath>
    <clipPath id="clip-1765356398539-0">
      <rect x="0" y="0" width="120" height="80" rx="8"/>
    </clipPath>
  </defs>
  
  <rect width="800" height="510" fill="url(#bgGrad)"/>
  
  <text x="400" y="35" font-family="system-ui, sans-serif" font-size="18" font-weight="bold" fill="#facc15" text-anchor="middle">Data Preparation Workflow</text>
  
  <!-- Raw Data -->
  <g transform="translate(50, 80)">

    <rect x="0" y="0" width="120" height="80" fill="#4f46e5" opacity="0.3" rx="8" stroke="#6366f1" stroke-width="2"/>
    <g clip-path="url(#clip-1765356398539-0)">
    <text x="60" y="30" font-family="system-ui, sans-serif" font-size="14" font-weight="bold" fill="#fff" text-anchor="middle">Raw Data</text>
    <text x="60" y="50" font-family="system-ui, sans-serif" font-size="10" fill="#cbd5e1" text-anchor="middle">Missing values</text>
    <text x="60" y="65" font-family="system-ui, sans-serif" font-size="10" fill="#cbd5e1" text-anchor="middle">Outliers</text>
    <text x="60" y="80" font-family="system-ui, sans-serif" font-size="10" fill="#cbd5e1" text-anchor="middle">Different scales</text>
    </g>

  </g>
  
  <!-- Identify Issues -->
  <g transform="translate(220, 80)">

    <rect x="0" y="0" width="120" height="80" fill="#6366f1" opacity="0.3" rx="8" stroke="#818cf8" stroke-width="2"/>
    <g clip-path="url(#clip-1765356398539-1)">
    <text x="60" y="30" font-family="system-ui, sans-serif" font-size="14" font-weight="bold" fill="#fff" text-anchor="middle">Identify Issues</text>
    <text x="60" y="50" font-family="system-ui, sans-serif" font-size="10" fill="#cbd5e1" text-anchor="middle">Data profiling</text>
    <text x="60" y="65" font-family="system-ui, sans-serif" font-size="10" fill="#cbd5e1" text-anchor="middle">Quality checks</text>
    <text x="60" y="80" font-family="system-ui, sans-serif" font-size="10" fill="#cbd5e1" text-anchor="middle">Validation</text>
    </g>

  </g>
  
  <!-- Handle Missing -->
  <g transform="translate(390, 80)">

    <rect x="0" y="0" width="120" height="80" fill="#8b5cf6" opacity="0.3" rx="8" stroke="#a78bfa" stroke-width="2"/>
    <g clip-path="url(#clip-1765356398539-2)">
    <text x="60" y="30" font-family="system-ui, sans-serif" font-size="14" font-weight="bold" fill="#fff" text-anchor="middle">Handle Missing</text>
    <text x="60" y="50" font-family="system-ui, sans-serif" font-size="10" fill="#cbd5e1" text-anchor="middle">Imputation</text>
    <text x="60" y="65" font-family="system-ui, sans-serif" font-size="10" fill="#cbd5e1" text-anchor="middle">Removal</text>
    <text x="60" y="80" font-family="system-ui, sans-serif" font-size="10" fill="#cbd5e1" text-anchor="middle">Prediction</text>
    </g>

  </g>
  
  <!-- Remove Outliers -->
  <g transform="translate(560, 80)">

    <rect x="0" y="0" width="120" height="80" fill="#ec4899" opacity="0.3" rx="8" stroke="#f472b6" stroke-width="2"/>
    <g clip-path="url(#clip-1765356398539-3)">
    <text x="60" y="30" font-family="system-ui, sans-serif" font-size="14" font-weight="bold" fill="#fff" text-anchor="middle">Remove Outliers</text>
    <text x="60" y="50" font-family="system-ui, sans-serif" font-size="10" fill="#cbd5e1" text-anchor="middle">Z-score</text>
    <text x="60" y="65" font-family="system-ui, sans-serif" font-size="10" fill="#cbd5e1" text-anchor="middle">IQR method</text>
    <text x="60" y="80" font-family="system-ui, sans-serif" font-size="10" fill="#cbd5e1" text-anchor="middle">Capping</text>
    </g>

  </g>
  
  <!-- Normalize -->
  <g transform="translate(220, 200)">

    <rect x="0" y="0" width="120" height="80" fill="#10b981" opacity="0.3" rx="8" stroke="#34d399" stroke-width="2"/>
    <g clip-path="url(#clip-1765356398539-4)">
    <text x="60" y="30" font-family="system-ui, sans-serif" font-size="14" font-weight="bold" fill="#fff" text-anchor="middle">Normalize</text>
    <text x="60" y="50" font-family="system-ui, sans-serif" font-size="10" fill="#cbd5e1" text-anchor="middle">Min-Max</text>
    <text x="60" y="65" font-family="system-ui, sans-serif" font-size="10" fill="#cbd5e1" text-anchor="middle">Standardize</text>
    <text x="60" y="80" font-family="system-ui, sans-serif" font-size="10" fill="#cbd5e1" text-anchor="middle">Scaling</text>
    </g>

  </g>
  
  <!-- Feature Engineering -->
  <g transform="translate(390, 200)">

    <rect x="0" y="0" width="120" height="80" fill="#f59e0b" opacity="0.3" rx="8" stroke="#fbbf24" stroke-width="2"/>
    <g clip-path="url(#clip-1765356398539-5)">
    <text x="60" y="30" font-family="system-ui, sans-serif" font-size="14" font-weight="bold" fill="#fff" text-anchor="middle">Feature Eng</text>
    <text x="60" y="50" font-family="system-ui, sans-serif" font-size="10" fill="#cbd5e1" text-anchor="middle">Interactions</text>
    <text x="60" y="65" font-family="system-ui, sans-serif" font-size="10" fill="#cbd5e1" text-anchor="middle">Polynomials</text>
    <text x="60" y="80" font-family="system-ui, sans-serif" font-size="10" fill="#cbd5e1" text-anchor="middle">Transformations</text>
    </g>

  </g>
  
  <!-- Validate -->
  <g transform="translate(560, 200)">

    <rect x="0" y="0" width="120" height="80" fill="#06b6d4" opacity="0.3" rx="8" stroke="#22d3ee" stroke-width="2"/>
    <g clip-path="url(#clip-1765356398539-6)">
    <text x="60" y="30" font-family="system-ui, sans-serif" font-size="14" font-weight="bold" fill="#fff" text-anchor="middle">Validate</text>
    <text x="60" y="50" font-family="system-ui, sans-serif" font-size="10" fill="#cbd5e1" text-anchor="middle">Quality checks</text>
    <text x="60" y="65" font-family="system-ui, sans-serif" font-size="10" fill="#cbd5e1" text-anchor="middle">Constraints</text>
    <text x="60" y="80" font-family="system-ui, sans-serif" font-size="10" fill="#cbd5e1" text-anchor="middle">Consistency</text>
    </g>

  </g>
  
  <!-- Clean Data -->
  <g transform="translate(305, 320)">

    <rect x="0" y="0" width="190" height="80" fill="#10b981" opacity="0.4" rx="8" stroke="#34d399" stroke-width="3"/>
    <g clip-path="url(#clip-1765356398539-7)">
    <text x="95" y="30" font-family="system-ui, sans-serif" font-size="16" font-weight="bold" fill="#fff" text-anchor="middle">Clean Data</text>
    <text x="95" y="50" font-family="system-ui, sans-serif" font-size="12" fill="#cbd5e1" text-anchor="middle">Ready for training</text>
    <text x="95" y="70" font-family="system-ui, sans-serif" font-size="12" fill="#cbd5e1" text-anchor="middle">No missing values</text>
    <text x="95" y="85" font-family="system-ui, sans-serif" font-size="12" fill="#cbd5e1" text-anchor="middle">Normalized features</text>
    </g>

  </g>
  
  <!-- Arrows -->
  <path d="M 110.0 160.0 L 110.0 164.0 L 280.0 164.0 L 280.0 160.0" fill="none" stroke="#06b6d4" stroke-width="0.5" marker-end="url(#arrowhead)" stroke-dasharray="1.5,1.5" opacity="0.8"/><path d="M 280.0 160.0 L 280.0 164.0 L 450.0 164.0 L 450.0 160.0" fill="none" stroke="#06b6d4" stroke-width="0.5" marker-end="url(#arrowhead)" stroke-dasharray="1.5,1.5" opacity="0.8"/><path d="M 450.0 160.0 L 450.0 164.0 L 620.0 164.0 L 620.0 160.0" fill="none" stroke="#06b6d4" stroke-width="0.5" marker-end="url(#arrowhead)" stroke-dasharray="1.5,1.5" opacity="0.8"/><path d="M 620.0 160.0 L 620.0 164.0 L 280.0 164.0 L 280.0 200.0" fill="none" stroke="#06b6d4" stroke-width="0.5" marker-end="url(#arrowhead)" stroke-dasharray="1.5,1.5" opacity="0.8"/><path d="M 280.0 280.0 L 280.0 284.0 L 400.0 284.0 L 400.0 320.0" fill="none" stroke="#06b6d4" stroke-width="0.5" marker-end="url(#arrowhead)" stroke-dasharray="1.5,1.5" opacity="0.8"/><path d="M 450.0 280.0 L 450.0 284.0 L 400.0 284.0 L 400.0 320.0" fill="none" stroke="#06b6d4" stroke-width="0.5" marker-end="url(#arrowhead)" stroke-dasharray="1.5,1.5" opacity="0.8"/><path d="M 620.0 280.0 L 620.0 284.0 L 400.0 284.0 L 400.0 320.0" fill="none" stroke="#06b6d4" stroke-width="0.5" marker-end="url(#arrowhead)" stroke-dasharray="1.5,1.5" opacity="0.8"/></svg>
