<svg width="800" height="510" viewBox="0 0 800 510" xmlns="http://www.w3.org/2000/svg">
  <defs>
    <linearGradient id="bgGrad" x1="0%" y1="0%" x2="100%" y2="100%">
      <stop offset="0%" style="stop-color:#1f2937;stop-opacity:1" />
      <stop offset="100%" style="stop-color:#111827;stop-opacity:1" />
    </linearGradient>
                  <clipPath id="clip-1765356398540-3">
      <rect x="0" y="0" width="220" height="150" rx="4"/>
    </clipPath>
    <clipPath id="clip-1765356398540-2">
      <rect x="0" y="0" width="220" height="150" rx="4"/>
    </clipPath>
    <clipPath id="clip-1765356398540-1">
      <rect x="0" y="0" width="220" height="150" rx="4"/>
    </clipPath>
    <clipPath id="clip-1765356398540-0">
      <rect x="0" y="20" width="700" height="200" rx="4"/>
    </clipPath>
  </defs>
  
  <rect width="800" height="510" fill="url(#bgGrad)"/>
  
  <text x="400" y="35" font-family="system-ui, sans-serif" font-size="18" font-weight="bold" fill="#facc15" text-anchor="middle">Outlier Detection Methods</text>
  
  <!-- Data Distribution -->
  <g transform="translate(50, 80)">

    <rect x="0" y="20" width="700" height="200" fill="#1e293b" rx="4" stroke="#475569" stroke-width="1"/>
    <g clip-path="url(#clip-1765356398540-0)">
    <text x="0" y="0" font-family="system-ui, sans-serif" font-size="14" font-weight="bold" fill="#94a3b8">Data Distribution:</text>
    <text x="350" y="75" font-family="system-ui, sans-serif" font-size="10" fill="#06b6d4" text-anchor="middle">Z-score ±3 bounds</text>
    <text x="350" y="95" font-family="system-ui, sans-serif" font-size="10" fill="#f59e0b" text-anchor="middle">IQR bounds</text>
    <text x="50" y="200" font-family="system-ui, sans-serif" font-size="10" fill="#ef4444">Outlier 1</text>
    <text x="700" y="200" font-family="system-ui, sans-serif" font-size="10" fill="#ef4444">Outlier 2</text>
    </g>

    <!-- Normal data points -->
    <circle cx="100" cy="120" r="4" fill="#10b981"/>
    <circle cx="150" cy="110" r="4" fill="#10b981"/>
    <circle cx="200" cy="115" r="4" fill="#10b981"/>
    <circle cx="250" cy="120" r="4" fill="#10b981"/>
    <circle cx="300" cy="118" r="4" fill="#10b981"/>
    <circle cx="350" cy="122" r="4" fill="#10b981"/>
    <circle cx="400" cy="115" r="4" fill="#10b981"/>
    <circle cx="450" cy="120" r="4" fill="#10b981"/>
    <circle cx="500" cy="118" r="4" fill="#10b981"/>
    <circle cx="550" cy="122" r="4" fill="#10b981"/>
    <circle cx="600" cy="115" r="4" fill="#10b981"/>
    <circle cx="650" cy="120" r="4" fill="#10b981"/>
    
    <!-- Outliers -->
    <circle cx="50" cy="80" r="6" fill="#ef4444"/>
    <circle cx="700" cy="60" r="6" fill="#ef4444"/>
    
    <!-- Z-score bounds -->
    <line x1="100" y1="80" x2="600" y2="80" stroke="#06b6d4" stroke-width="2" stroke-dasharray="5,5"/>
    <line x1="100" y1="160" x2="600" y2="160" stroke="#06b6d4" stroke-width="2" stroke-dasharray="5,5"/>

    <!-- IQR bounds -->
    <line x1="150" y1="100" x2="550" y2="100" stroke="#f59e0b" stroke-width="2" stroke-dasharray="3,3"/>
    <line x1="150" y1="140" x2="550" y2="140" stroke="#f59e0b" stroke-width="2" stroke-dasharray="3,3"/>

  </g>
  
  <!-- Methods -->
  <g transform="translate(50, 320)">

    <rect x="0" y="0" width="220" height="150" fill="#1e293b" rx="4" stroke="#475569" stroke-width="1"/>
    <g clip-path="url(#clip-1765356398540-1)">
    <text x="110" y="25" font-family="system-ui, sans-serif" font-size="14" font-weight="bold" fill="#06b6d4" text-anchor="middle">Z-Score Method</text>
    <text x="10" y="50" font-family="system-ui, sans-serif" font-size="11" fill="#cbd5e1">Formula: z = (x - μ) / σ</text>
    <text x="10" y="70" font-family="system-ui, sans-serif" font-size="11" fill="#cbd5e1">Threshold: |z| > 3</text>
    <text x="10" y="90" font-family="system-ui, sans-serif" font-size="11" fill="#cbd5e1">Pros: Simple, fast</text>
    <text x="10" y="110" font-family="system-ui, sans-serif" font-size="11" fill="#cbd5e1">Cons: Assumes normal</text>
    <text x="10" y="130" font-family="system-ui, sans-serif" font-size="11" fill="#cbd5e1">distribution</text>
    </g>

  </g>
  
  <g transform="translate(290, 320)">

    <rect x="0" y="0" width="220" height="150" fill="#1e293b" rx="4" stroke="#475569" stroke-width="1"/>
    <g clip-path="url(#clip-1765356398540-2)">
    <text x="110" y="25" font-family="system-ui, sans-serif" font-size="14" font-weight="bold" fill="#f59e0b" text-anchor="middle">IQR Method</text>
    <text x="10" y="50" font-family="system-ui, sans-serif" font-size="11" fill="#cbd5e1">Q1 = 25th percentile</text>
    <text x="10" y="70" font-family="system-ui, sans-serif" font-size="11" fill="#cbd5e1">Q3 = 75th percentile</text>
    <text x="10" y="90" font-family="system-ui, sans-serif" font-size="11" fill="#cbd5e1">Bounds: Q1-1.5×IQR</text>
    <text x="10" y="110" font-family="system-ui, sans-serif" font-size="11" fill="#cbd5e1">to Q3+1.5×IQR</text>
    <text x="10" y="130" font-family="system-ui, sans-serif" font-size="11" fill="#cbd5e1">Pros: Robust to outliers</text>
    </g>

  </g>
  
  <g transform="translate(530, 320)">

    <rect x="0" y="0" width="220" height="150" fill="#1e293b" rx="4" stroke="#475569" stroke-width="1"/>
    <g clip-path="url(#clip-1765356398540-3)">
    <text x="110" y="25" font-family="system-ui, sans-serif" font-size="14" font-weight="bold" fill="#10b981" text-anchor="middle">Isolation Forest</text>
    <text x="10" y="50" font-family="system-ui, sans-serif" font-size="11" fill="#cbd5e1">Uses tree structures</text>
    <text x="10" y="70" font-family="system-ui, sans-serif" font-size="11" fill="#cbd5e1">Isolates anomalies</text>
    <text x="10" y="90" font-family="system-ui, sans-serif" font-size="11" fill="#cbd5e1">Works with any</text>
    <text x="10" y="110" font-family="system-ui, sans-serif" font-size="11" fill="#cbd5e1">distribution</text>
    <text x="10" y="130" font-family="system-ui, sans-serif" font-size="11" fill="#cbd5e1">Pros: No assumptions</text>
    </g>

  </g>
  
</svg>