<svg width="800" height="510" viewBox="0 0 800 510" xmlns="http://www.w3.org/2000/svg">
  <defs>
    <linearGradient id="bgGrad" x1="0%" y1="0%" x2="100%" y2="100%">
      <stop offset="0%" style="stop-color:#1f2937;stop-opacity:1" />
      <stop offset="100%" style="stop-color:#111827;stop-opacity:1" />
    </linearGradient>
    <marker id="arrowhead" markerWidth="6" markerHeight="6" refX="5" refY="2" orient="auto">
      <polygon points="0 0, 6 2, 0 4" fill="#06b6d4"/>
    </marker>
                  <clipPath id="clip-1765356398540-5">
      <rect x="0" y="0" width="700" height="150" rx="4"/>
    </clipPath>
    <clipPath id="clip-1765356398540-4">
      <rect x="0" y="0" width="150" height="80" rx="8"/>
    </clipPath>
    <clipPath id="clip-1765356398540-3">
      <rect x="0" y="0" width="150" height="100" rx="8"/>
    </clipPath>
    <clipPath id="clip-1765356398540-2">
      <rect x="0" y="0" width="100" height="100" rx="8"/>
    </clipPath>
    <clipPath id="clip-1765356398540-1">
      <rect x="0" y="0" width="150" height="100" rx="8"/>
    </clipPath>
    <clipPath id="clip-1765356398540-0">
      <rect x="0" y="0" width="150" height="100" rx="8"/>
    </clipPath>
  </defs>
  
  <rect width="800" height="510" fill="url(#bgGrad)"/>
  
  <text x="400" y="35" font-family="system-ui, sans-serif" font-size="18" font-weight="bold" fill="#facc15" text-anchor="middle">Linear Models Overview</text>
  
  <!-- Input Features -->
  <g transform="translate(50, 80)">

    <rect x="0" y="0" width="150" height="100" fill="#4f46e5" opacity="0.3" rx="8" stroke="#6366f1" stroke-width="2"/>
    <g clip-path="url(#clip-1765356398540-0)">
    <text x="75" y="30" font-family="system-ui, sans-serif" font-size="14" font-weight="bold" fill="#fff" text-anchor="middle">Input Features</text>
    <text x="75" y="55" font-family="monospace" font-size="10" fill="#cbd5e1" text-anchor="middle">x₁, x₂, x₃, ...</text>
    <text x="75" y="75" font-family="monospace" font-size="10" fill="#cbd5e1" text-anchor="middle">Features</text>
    <text x="75" y="95" font-family="monospace" font-size="10" fill="#cbd5e1" text-anchor="middle">multiply by</text>
    </g>

  </g>
  
  <!-- Weights -->
  <g transform="translate(250, 80)">

    <rect x="0" y="0" width="150" height="100" fill="#6366f1" opacity="0.3" rx="8" stroke="#818cf8" stroke-width="2"/>
    <g clip-path="url(#clip-1765356398540-1)">
    <text x="75" y="30" font-family="system-ui, sans-serif" font-size="14" font-weight="bold" fill="#fff" text-anchor="middle">Weights</text>
    <text x="75" y="55" font-family="monospace" font-size="10" fill="#cbd5e1" text-anchor="middle">w₁, w₂, w₃, ...</text>
    <text x="75" y="75" font-family="monospace" font-size="10" fill="#cbd5e1" text-anchor="middle">Learned</text>
    <text x="75" y="95" font-family="monospace" font-size="10" fill="#cbd5e1" text-anchor="middle">parameters</text>
    </g>

  </g>
  
  <!-- Sum -->
  <g transform="translate(450, 80)">

    <rect x="0" y="0" width="100" height="100" fill="#8b5cf6" opacity="0.3" rx="8" stroke="#a78bfa" stroke-width="2"/>
    <g clip-path="url(#clip-1765356398540-2)">
    <text x="50" y="50" font-family="system-ui, sans-serif" font-size="24" font-weight="bold" fill="#fff" text-anchor="middle">Σ</text>
    </g>

  </g>
  
  <!-- Bias -->
  <g transform="translate(600, 80)">

    <rect x="0" y="0" width="150" height="100" fill="#ec4899" opacity="0.3" rx="8" stroke="#f472b6" stroke-width="2"/>
    <g clip-path="url(#clip-1765356398540-3)">
    <text x="75" y="30" font-family="system-ui, sans-serif" font-size="14" font-weight="bold" fill="#fff" text-anchor="middle">Bias</text>
    <text x="75" y="55" font-family="monospace" font-size="10" fill="#cbd5e1" text-anchor="middle">+ b</text>
    <text x="75" y="75" font-family="monospace" font-size="10" fill="#cbd5e1" text-anchor="middle">Baseline</text>
    <text x="75" y="95" font-family="monospace" font-size="10" fill="#cbd5e1" text-anchor="middle">value</text>
    </g>

  </g>
  
  <!-- Output -->
  <g transform="translate(325, 220)">

    <rect x="0" y="0" width="150" height="80" fill="#10b981" opacity="0.4" rx="8" stroke="#34d399" stroke-width="3"/>
    <g clip-path="url(#clip-1765356398540-4)">
    <text x="75" y="30" font-family="system-ui, sans-serif" font-size="16" font-weight="bold" fill="#fff" text-anchor="middle">Prediction</text>
    <text x="75" y="55" font-family="monospace" font-size="12" fill="#cbd5e1" text-anchor="middle">y = Σ(wᵢxᵢ) + b</text>
    <text x="75" y="75" font-family="monospace" font-size="12" fill="#cbd5e1" text-anchor="middle">Output</text>
    </g>

  </g>
  
  <!-- Arrows -->
  <path d="M 190.0 130.0 L 190.0 134.0 L 325.0 134.0 L 325.0 80.0" fill="none" stroke="#06b6d4" stroke-width="0.5" marker-end="M 190.0 130.0 L 190.0 134.0 L 325.0 134.0 L 325.0 80.0"/ stroke-dasharray="1.5,1.5" opacity="0.8">
  <path d="M 325.0 130.0 L 500.0 130.0" fill="none" stroke="#06b6d4" stroke-width="0.5" marker-end="M 325.0 130.0 L 500.0 130.0"/ stroke-dasharray="1.5,1.5" opacity="0.8">
  <path d="M 510.0 130.0 L 510.0 134.0 L 675.0 134.0 L 675.0 80.0" fill="none" stroke="#06b6d4" stroke-width="0.5" marker-end="M 510.0 130.0 L 510.0 134.0 L 675.0 134.0 L 675.0 80.0"/ stroke-dasharray="1.5,1.5" opacity="0.8">
  <path d="M 500.0 180.0 L 500.0 184.0 L 400.0 184.0 L 400.0 220.0" fill="none" stroke="#06b6d4" stroke-width="0.5" marker-end="M 500.0 180.0 L 500.0 184.0 L 400.0 184.0 L 400.0 220.0"/ stroke-dasharray="1.5,1.5" opacity="0.8">
  <path d="M 675.0 180.0 L 675.0 184.0 L 400.0 184.0 L 400.0 220.0" fill="none" stroke="#06b6d4" stroke-width="0.5" marker-end="M 675.0 180.0 L 675.0 184.0 L 400.0 184.0 L 400.0 220.0"/ stroke-dasharray="1.5,1.5" opacity="0.8">
  
  <!-- Types -->
  <g transform="translate(50, 330)">

    <rect x="0" y="0" width="700" height="150" fill="#1e293b" rx="4" stroke="#475569" stroke-width="1"/>
    <g clip-path="url(#clip-1765356398540-5)">
    <text x="350" y="30" font-family="system-ui, sans-serif" font-size="16" font-weight="bold" fill="#facc15" text-anchor="middle">Linear Model Types</text>
    <text x="190" y="75" font-family="system-ui, sans-serif" font-size="14" font-weight="bold" fill="#fff" text-anchor="middle">Linear Regression</text>
    <text x="60" y="100" font-family="system-ui, sans-serif" font-size="11" fill="#cbd5e1">Predicts continuous values</text>
    <text x="60" y="120" font-family="system-ui, sans-serif" font-size="11" fill="#cbd5e1">Output: numeric (price, temperature)</text>
    <text x="510" y="75" font-family="system-ui, sans-serif" font-size="14" font-weight="bold" fill="#fff" text-anchor="middle">Logistic Regression</text>
    <text x="380" y="100" font-family="system-ui, sans-serif" font-size="11" fill="#cbd5e1">Predicts probabilities</text>
    <text x="380" y="120" font-family="system-ui, sans-serif" font-size="11" fill="#cbd5e1">Output: 0-1 range (classification)</text>
    </g>

    <rect x="50" y="50" width="280" height="80" fill="#4f46e5" opacity="0.2" rx="4" stroke="#6366f1" stroke-width="1"/>

    <rect x="370" y="50" width="280" height="80" fill="#8b5cf6" opacity="0.2" rx="4" stroke="#a78bfa" stroke-width="1"/>

  </g>
  
</svg>