<svg width="800" height="510" viewBox="0 0 800 510" xmlns="http://www.w3.org/2000/svg">
  <defs>
    <linearGradient id="bgGrad" x1="0%" y1="0%" x2="100%" y2="100%">
      <stop offset="0%" style="stop-color:#1f2937;stop-opacity:1" />
      <stop offset="100%" style="stop-color:#111827;stop-opacity:1" />
    </linearGradient>
                  <clipPath id="clip-1765356398540-1">
      <rect x="0" y="0" width="700" height="50" rx="4"/>
    </clipPath>
    <clipPath id="clip-1765356398540-0">
      <rect x="0" y="0" width="700" height="350" rx="4"/>
    </clipPath>
  </defs>
  
  <rect width="800" height="510" fill="url(#bgGrad)"/>
  
  <text x="400" y="35" font-family="system-ui, sans-serif" font-size="18" font-weight="bold" fill="#facc15" text-anchor="middle">Logistic Regression</text>
  
  <!-- Sigmoid Curve -->
  <g transform="translate(50, 80)">

    <rect x="0" y="0" width="700" height="350" fill="#1e293b" rx="4" stroke="#475569" stroke-width="1"/>
    <g clip-path="url(#clip-1765356398540-0)">
    <text x="350" y="340" font-family="system-ui, sans-serif" font-size="12" fill="#94a3b8" text-anchor="middle">Linear Combination (z)</text>
    <text x="20" y="175" font-family="system-ui, sans-serif" font-size="12" fill="#94a3b8" text-anchor="middle">Probability</text>
    <text x="600" y="100" font-family="system-ui, sans-serif" font-size="11" fill="#06b6d4">σ(z) = 1/(1+e^(-z))</text>
    <text x="360" y="170" font-family="system-ui, sans-serif" font-size="10" fill="#facc15">Threshold 0.5</text>
    <text x="150" y="280" font-family="system-ui, sans-serif" font-size="12" fill="#ef4444">Class 0</text>
    <text x="550" y="80" font-family="system-ui, sans-serif" font-size="12" fill="#10b981">Class 1</text>
    </g>

    <!-- Axes -->
    <line x1="50" y1="300" x2="650" y2="300" stroke="#94a3b8" stroke-width="2"/>
    <line x1="50" y1="300" x2="50" y2="50" stroke="#94a3b8" stroke-width="2"/>

    <!-- Sigmoid curve -->
    <path d="M 50,300 Q 200,250 350,200 T 650,50" stroke="#06b6d4" stroke-width="3" fill="none"/><!-- Decision boundary -->
    <line x1="350" y1="300" x2="350" y2="50" stroke="#facc15" stroke-width="2" stroke-dasharray="5,5"/>

    <!-- Class regions -->

  </g>
  
  <!-- Data Points -->
  <g transform="translate(50, 450)">

    <rect x="0" y="0" width="700" height="50" fill="#1e293b" rx="4" stroke="#475569" stroke-width="1"/>
    <g clip-path="url(#clip-1765356398540-1)">
    <text x="100" y="20" font-family="system-ui, sans-serif" font-size="11" fill="#10b981">Class 1 points (y=1)</text>
    <text x="100" y="40" font-family="system-ui, sans-serif" font-size="11" fill="#ef4444">Class 0 points (y=0)</text>
    <text x="400" y="30" font-family="monospace" font-size="12" fill="#facc15" text-anchor="middle">P(y=1|x) = σ(wx + b)</text>
    </g>

  </g>
  
</svg>
