<svg width="800" height="510" viewBox="0 0 800 510" xmlns="http://www.w3.org/2000/svg">
  <defs>
    <linearGradient id="bgGrad" x1="0%" y1="0%" x2="100%" y2="100%">
      <stop offset="0%" style="stop-color:#1f2937;stop-opacity:1" />
      <stop offset="100%" style="stop-color:#111827;stop-opacity:1" />
    </linearGradient>
    <marker id="arrowhead" markerWidth="6" markerHeight="6" refX="5" refY="2" orient="auto">
      <polygon points="0 0, 6 2, 0 4" fill="#06b6d4"/>
    </marker>
                  <clipPath id="clip-1765356398548-4">
      <rect x="0" y="0" width="700" height="250" rx="4"/>
    </clipPath>
    <clipPath id="clip-1765356398548-3">
      <rect x="0" y="0" width="100" height="100" rx="8"/>
    </clipPath>
    <clipPath id="clip-1765356398548-2">
      <rect x="0" y="0" width="150" height="100" rx="8"/>
    </clipPath>
    <clipPath id="clip-1765356398548-1">
      <rect x="0" y="0" width="150" height="100" rx="8"/>
    </clipPath>
    <clipPath id="clip-1765356398548-0">
      <rect x="0" y="0" width="150" height="100" rx="8"/>
    </clipPath>
  </defs>
  
  <rect width="800" height="510" fill="url(#bgGrad)"/>
  
  <text x="400" y="35" font-family="system-ui, sans-serif" font-size="18" font-weight="bold" fill="#facc15" text-anchor="middle">Semantic Search Process</text>
  
  <!-- Query -->
  <g transform="translate(50, 80)">

    <rect x="0" y="0" width="150" height="100" fill="#4f46e5" opacity="0.3" rx="8" stroke="#6366f1" stroke-width="2"/>
    <g clip-path="url(#clip-1765356398548-0)">
    <text x="75" y="30" font-family="system-ui, sans-serif" font-size="14" font-weight="bold" fill="#fff" text-anchor="middle">Query</text>
    <text x="75" y="60" font-family="monospace" font-size="11" fill="#cbd5e1" text-anchor="middle">"machine</text>
    <text x="75" y="80" font-family="monospace" font-size="11" fill="#cbd5e1" text-anchor="middle">learning"</text>
    </g>

  </g>
  
  <!-- Embed -->
  <g transform="translate(250, 80)">

    <rect x="0" y="0" width="150" height="100" fill="#8b5cf6" opacity="0.3" rx="8" stroke="#a78bfa" stroke-width="2"/>
    <g clip-path="url(#clip-1765356398548-1)">
    <text x="75" y="30" font-family="system-ui, sans-serif" font-size="14" font-weight="bold" fill="#fff" text-anchor="middle">Embed</text>
    <text x="75" y="60" font-family="monospace" font-size="11" fill="#cbd5e1" text-anchor="middle">Query →</text>
    <text x="75" y="80" font-family="monospace" font-size="11" fill="#cbd5e1" text-anchor="middle">Vector</text>
    </g>

  </g>
  
  <!-- Search -->
  <g transform="translate(450, 80)">

    <rect x="0" y="0" width="150" height="100" fill="#ec4899" opacity="0.3" rx="8" stroke="#f472b6" stroke-width="2"/>
    <g clip-path="url(#clip-1765356398548-2)">
    <text x="75" y="30" font-family="system-ui, sans-serif" font-size="14" font-weight="bold" fill="#fff" text-anchor="middle">Search</text>
    <text x="75" y="60" font-family="monospace" font-size="11" fill="#cbd5e1" text-anchor="middle">Similarity</text>
    <text x="75" y="80" font-family="monospace" font-size="11" fill="#cbd5e1" text-anchor="middle">matching</text>
    </g>

  </g>
  
  <!-- Results -->
  <g transform="translate(650, 80)">

    <rect x="0" y="0" width="100" height="100" fill="#10b981" opacity="0.3" rx="8" stroke="#34d399" stroke-width="2"/>
    <g clip-path="url(#clip-1765356398548-3)">
    <text x="50" y="30" font-family="system-ui, sans-serif" font-size="12" font-weight="bold" fill="#fff" text-anchor="middle">Results</text>
    <text x="50" y="60" font-family="monospace" font-size="10" fill="#cbd5e1" text-anchor="middle">Ranked</text>
    <text x="50" y="80" font-family="monospace" font-size="10" fill="#cbd5e1" text-anchor="middle">by meaning</text>
    </g>

  </g>
  
  <!-- Arrows -->
  <path d="M 260.0 80.0 L 260.0 80.0" fill="none" stroke="#06b6d4" stroke-width="0.5" marker-end="url(#arrowhead)" stroke-dasharray="1.5,1.5" opacity="0.8"/><path d="M 410.0 80.0 L 410.0 80.0" fill="none" stroke="#06b6d4" stroke-width="0.5" marker-end="url(#arrowhead)" stroke-dasharray="1.5,1.5" opacity="0.8"/><path d="M 560.0 110.0 L 560.0 114.0 L 700.0 114.0 L 700.0 80.0" fill="none" stroke="#06b6d4" stroke-width="0.5" marker-end="url(#arrowhead)" stroke-dasharray="1.5,1.5" opacity="0.8"/><!-- Documents -->
  <g transform="translate(50, 220)">

    <rect x="0" y="0" width="700" height="250" fill="#1e293b" rx="4" stroke="#475569" stroke-width="1"/>
    <g clip-path="url(#clip-1765356398548-4)">
    <text x="350" y="30" font-family="system-ui, sans-serif" font-size="16" font-weight="bold" fill="#facc15" text-anchor="middle">Document Processing Pipeline</text>
    <text x="110" y="75" font-family="system-ui, sans-serif" font-size="12" fill="#fff" text-anchor="middle">Documents</text>
    <text x="110" y="95" font-family="monospace" font-size="10" fill="#cbd5e1" text-anchor="middle">Raw text</text>
    <text x="260" y="75" font-family="system-ui, sans-serif" font-size="12" fill="#fff" text-anchor="middle">Chunk</text>
    <text x="260" y="95" font-family="monospace" font-size="10" fill="#cbd5e1" text-anchor="middle">Split</text>
    <text x="410" y="75" font-family="system-ui, sans-serif" font-size="12" fill="#fff" text-anchor="middle">Embed</text>
    <text x="410" y="95" font-family="monospace" font-size="10" fill="#cbd5e1" text-anchor="middle">Vectors</text>
    <text x="560" y="75" font-family="system-ui, sans-serif" font-size="12" fill="#fff" text-anchor="middle">Index</text>
    <text x="560" y="95" font-family="monospace" font-size="10" fill="#cbd5e1" text-anchor="middle">Store</text>
    <text x="350" y="150" font-family="system-ui, sans-serif" font-size="13" font-weight="bold" fill="#10b981" text-anchor="middle">Search Process</text>
    <text x="350" y="175" font-family="system-ui, sans-serif" font-size="11" fill="#cbd5e1" text-anchor="middle">1. Convert query to embedding</text>
    <text x="350" y="195" font-family="system-ui, sans-serif" font-size="11" fill="#cbd5e1" text-anchor="middle">2. Compute similarity to all document embeddings</text>
    <text x="350" y="215" font-family="system-ui, sans-serif" font-size="11" fill="#cbd5e1" text-anchor="middle">3. Rank by similarity score</text>
    <text x="350" y="235" font-family="system-ui, sans-serif" font-size="11" fill="#cbd5e1" text-anchor="middle">4. Return top-k most similar documents</text>
    </g>

    <rect x="50" y="50" width="120" height="60" fill="#4f46e5" opacity="0.3" rx="4"/>

    <rect x="200" y="50" width="120" height="60" fill="#8b5cf6" opacity="0.3" rx="4"/>

    <rect x="350" y="50" width="120" height="60" fill="#ec4899" opacity="0.3" rx="4"/>

    <rect x="500" y="50" width="120" height="60" fill="#10b981" opacity="0.3" rx="4"/>

    <path d="M 110.0 80.0 L 260.0 80.0" fill="none" stroke="#06b6d4" stroke-width="0.5" marker-end="url(#arrowhead)" stroke-dasharray="1.5,1.5" opacity="0.8"/><path d="M 260.0 110.0 L 260.0 114.0 L 325.0 114.0 L 325.0 80.0" fill="none" stroke="#06b6d4" stroke-width="0.5" marker-end="url(#arrowhead)" stroke-dasharray="1.5,1.5" opacity="0.8"/><path d="M 410.0 110.0 L 410.0 114.0 L 525.0 114.0 L 525.0 80.0" fill="none" stroke="#06b6d4" stroke-width="0.5" marker-end="url(#arrowhead)" stroke-dasharray="1.5,1.5" opacity="0.8"/></g>
  
</svg>

