<svg width="800" height="510" viewBox="0 0 800 510" xmlns="http://www.w3.org/2000/svg">
  <defs>
    <linearGradient id="bgGrad" x1="0%" y1="0%" x2="100%" y2="100%">
      <stop offset="0%" style="stop-color:#1f2937;stop-opacity:1" />
      <stop offset="100%" style="stop-color:#111827;stop-opacity:1" />
    </linearGradient>
    <marker id="arrowhead" markerWidth="6" markerHeight="6" refX="5" refY="2" orient="auto">
      <polygon points="0 0, 6 2, 0 4" fill="#06b6d4"/>
    </marker>
                  <clipPath id="clip-1765356398542-3">
      <rect x="0" y="0" width="120" height="300" rx="8"/>
    </clipPath>
    <clipPath id="clip-1765356398542-2">
      <rect x="0" y="0" width="120" height="300" rx="8"/>
    </clipPath>
    <clipPath id="clip-1765356398542-1">
      <rect x="0" y="0" width="120" height="300" rx="8"/>
    </clipPath>
    <clipPath id="clip-1765356398542-0">
      <rect x="0" y="0" width="120" height="300" rx="8"/>
    </clipPath>
  </defs>
  
  <rect width="800" height="510" fill="url(#bgGrad)"/>
  
  <text x="400" y="35" font-family="system-ui, sans-serif" font-size="18" font-weight="bold" fill="#facc15" text-anchor="middle">Neural Network Architecture</text>
  
  <!-- Input Layer -->
  <g transform="translate(50, 80)">

    <rect x="0" y="0" width="120" height="300" fill="#4f46e5" opacity="0.3" rx="8" stroke="#6366f1" stroke-width="2"/>
    <g clip-path="url(#clip-1765356398542-0)">
    <text x="60" y="25" font-family="system-ui, sans-serif" font-size="14" font-weight="bold" fill="#fff" text-anchor="middle">Input Layer</text>
    <text x="60" y="230" font-family="monospace" font-size="10" fill="#cbd5e1" text-anchor="middle">x₁, x₂, x₃, x₄</text>
    </g>

    <circle cx="60" cy="70" r="8" fill="#10b981"/>
    <circle cx="60" cy="110" r="8" fill="#10b981"/>
    <circle cx="60" cy="150" r="8" fill="#10b981"/>
    <circle cx="60" cy="190" r="8" fill="#10b981"/>

  </g>
  
  <!-- Hidden Layer 1 -->
  <g transform="translate(220, 80)">

    <rect x="0" y="0" width="120" height="300" fill="#8b5cf6" opacity="0.3" rx="8" stroke="#a78bfa" stroke-width="2"/>
    <g clip-path="url(#clip-1765356398542-1)">
    <text x="60" y="25" font-family="system-ui, sans-serif" font-size="14" font-weight="bold" fill="#fff" text-anchor="middle">Hidden Layer 1</text>
    <text x="60" y="270" font-family="monospace" font-size="10" fill="#cbd5e1" text-anchor="middle">5 neurons</text>
    </g>

    <circle cx="60" cy="70" r="8" fill="#22d3ee"/>
    <circle cx="60" cy="110" r="8" fill="#22d3ee"/>
    <circle cx="60" cy="150" r="8" fill="#22d3ee"/>
    <circle cx="60" cy="190" r="8" fill="#22d3ee"/>
    <circle cx="60" cy="230" r="8" fill="#22d3ee"/>

  </g>
  
  <!-- Hidden Layer 2 -->
  <g transform="translate(390, 80)">

    <rect x="0" y="0" width="120" height="300" fill="#ec4899" opacity="0.3" rx="8" stroke="#f472b6" stroke-width="2"/>
    <g clip-path="url(#clip-1765356398542-2)">
    <text x="60" y="25" font-family="system-ui, sans-serif" font-size="14" font-weight="bold" fill="#fff" text-anchor="middle">Hidden Layer 2</text>
    <text x="60" y="210" font-family="monospace" font-size="10" fill="#cbd5e1" text-anchor="middle">3 neurons</text>
    </g>

    <circle cx="60" cy="90" r="8" fill="#f59e0b"/>
    <circle cx="60" cy="130" r="8" fill="#f59e0b"/>
    <circle cx="60" cy="170" r="8" fill="#f59e0b"/>

  </g>
  
  <!-- Output Layer -->
  <g transform="translate(560, 80)">

    <rect x="0" y="0" width="120" height="300" fill="#10b981" opacity="0.3" rx="8" stroke="#34d399" stroke-width="2"/>
    <g clip-path="url(#clip-1765356398542-3)">
    <text x="60" y="25" font-family="system-ui, sans-serif" font-size="14" font-weight="bold" fill="#fff" text-anchor="middle">Output Layer</text>
    <text x="60" y="190" font-family="monospace" font-size="10" fill="#cbd5e1" text-anchor="middle">y₁, y₂</text>
    <text x="60" y="210" font-family="monospace" font-size="10" fill="#cbd5e1" text-anchor="middle">Predictions</text>
    </g>

    <circle cx="60" cy="110" r="8" fill="#facc15"/>
    <circle cx="60" cy="150" r="8" fill="#facc15"/>

  </g>
  
  <!-- Connections -->
  <g opacity="0.3">
    <!-- Input to Hidden 1 -->
    <line x1="170" y1="70" x2="220" y2="70" stroke="#06b6d4" stroke-width="1"/>
    <line x1="170" y1="110" x2="220" y2="110" stroke="#06b6d4" stroke-width="1"/>
    <line x1="170" y1="150" x2="220" y2="150" stroke="#06b6d4" stroke-width="1"/>
    <line x1="170" y1="190" x2="220" y2="190" stroke="#06b6d4" stroke-width="1"/>
    
    <!-- Hidden 1 to Hidden 2 -->
    <line x1="340" y1="70" x2="390" y2="90" stroke="#06b6d4" stroke-width="1"/>
    <line x1="340" y1="110" x2="390" y2="130" stroke="#06b6d4" stroke-width="1"/>
    <line x1="340" y1="150" x2="390" y2="170" stroke="#06b6d4" stroke-width="1"/>
    
    <!-- Hidden 2 to Output -->
    <line x1="510" y1="90" x2="560" y2="110" stroke="#06b6d4" stroke-width="1"/>
    <line x1="510" y1="130" x2="560" y2="150" stroke="#06b6d4" stroke-width="1"/>
    <line x1="510" y1="170" x2="560" y2="150" stroke="#06b6d4" stroke-width="1"/>
  </g>
  
  <!-- Flow -->
  <path d="M 60.0 300.0 L 60.0 304.0 L 620.0 304.0 L 620.0 80.0" fill="none" stroke="#06b6d4" stroke-width="0.5" marker-end="url(#arrowhead)" stroke-dasharray="1.5,1.5" opacity="0.8"/><text x="400" y="395" font-family="system-ui, sans-serif" font-size="12" fill="#06b6d4" text-anchor="middle">Forward Propagation</text>
  
</svg>
